<?xml version="1.0" standalone="no"?>
<!DOCTYPE svg PUBLIC "-//W3C//DTD SVG 20010904//EN"
 "http://www.w3.org/TR/2001/REC-SVG-20010904/DTD/svg10.dtd">
<svg version="1.0" xmlns="http://www.w3.org/2000/svg"
 width="1200.000000pt" height="1200.000000pt" viewBox="0 0 1200.000000 1200.000000"
 preserveAspectRatio="xMidYMid meet">

<g transform="translate(0.000000,1200.000000) scale(0.100000,-0.100000)"
fill="#000000" stroke="none">
<path d="M5805 11981 c-111 -26 -200 -61 -286 -114 -61 -37 -517 -301 -1224
-709 -1452 -838 -2402 -1389 -2447 -1419 -180 -122 -321 -337 -374 -567 l-24
-107 0 -2185 c0 -2108 1 -2188 19 -2277 39 -188 116 -328 261 -473 124 -124
10 -54 1315 -806 523 -300 1049 -604 1170 -674 121 -70 456 -264 745 -430 289
-167 581 -335 650 -375 69 -40 316 -182 550 -317 234 -135 911 -525 1504 -868
594 -342 1098 -631 1120 -641 100 -45 220 3 267 106 18 38 19 111 19 1550 0
981 4 1525 11 1554 17 77 61 154 119 211 45 44 140 103 493 305 255 145 470
275 514 310 146 116 264 297 318 490 l25 90 -2 2240 -3 2240 -28 94 c-66 224
-217 432 -396 545 -38 24 -397 232 -1916 1111 -511 296 -1085 628 -1275 738
-190 109 -377 219 -415 243 -170 105 -300 144 -495 150 -107 3 -152 0 -215
-15z m4089 -3315 c129 -63 214 -183 236 -331 13 -96 13 -3554 0 -3650 -14 -91
-55 -177 -116 -243 -41 -44 -128 -98 -554 -343 -278 -160 -667 -385 -865 -499
-198 -114 -666 -384 -1040 -600 -374 -215 -705 -405 -735 -420 -79 -40 -164
-54 -243 -40 -140 26 -258 116 -320 247 l-32 68 -8 803 c-4 441 -4 1289 0
1885 l8 1082 34 69 c45 91 106 151 221 218 52 30 196 114 320 185 1528 886
2650 1532 2732 1574 60 30 106 39 201 35 77 -3 97 -8 161 -40z"/>
<path d="M9209 7051 c-113 -56 -508 -289 -530 -312 -45 -47 -49 -84 -49 -405
0 -268 2 -303 19 -339 37 -82 124 -127 206 -108 64 15 562 300 589 338 21 29
21 38 21 385 l0 355 -23 33 c-49 67 -156 92 -233 53z"/>
<path d="M7717 6196 c-191 -102 -511 -293 -526 -315 -39 -54 -43 -94 -39 -411
3 -301 3 -306 27 -343 42 -68 101 -94 196 -89 18 1 139 64 300 156 239 136
273 158 292 193 22 38 22 48 23 354 0 173 0 328 0 346 0 39 -49 100 -97 119
-51 22 -124 17 -176 -10z"/>
</g>
</svg>
